<mxfile host="app.diagrams.net" modified="2023-05-25T12:19:11.482Z" agent="Mozilla/5.0 (Windows NT 10.0; Win64; x64) AppleWebKit/537.36 (KHTML, like Gecko) Chrome/113.0.0.0 Safari/537.36" etag="tWKEL0qjYg-zGqs5Zaaa" version="21.3.3" type="github">
  <diagram name="第 1 页" id="onLHVA7NT5j2-Boniahc">
    <mxGraphModel dx="1313" dy="676" grid="1" gridSize="10" guides="1" tooltips="1" connect="1" arrows="1" fold="1" page="1" pageScale="1" pageWidth="827" pageHeight="1169" math="0" shadow="0">
      <root>
        <mxCell id="0" />
        <mxCell id="1" parent="0" />
        <mxCell id="RKU6eVZUQNVuSh7gr3lQ-1" value="" style="rounded=0;whiteSpace=wrap;html=1;" vertex="1" parent="1">
          <mxGeometry x="75" y="30" width="420" height="660" as="geometry" />
        </mxCell>
        <mxCell id="RKU6eVZUQNVuSh7gr3lQ-3" value="" style="endArrow=none;html=1;rounded=0;exitX=0.998;exitY=0.101;exitDx=0;exitDy=0;exitPerimeter=0;entryX=0.002;entryY=0.108;entryDx=0;entryDy=0;entryPerimeter=0;" edge="1" parent="1" source="RKU6eVZUQNVuSh7gr3lQ-1" target="RKU6eVZUQNVuSh7gr3lQ-1">
          <mxGeometry width="50" height="50" relative="1" as="geometry">
            <mxPoint x="470" y="370" as="sourcePoint" />
            <mxPoint x="90" y="90" as="targetPoint" />
          </mxGeometry>
        </mxCell>
        <mxCell id="RKU6eVZUQNVuSh7gr3lQ-4" value="&lt;font style=&quot;font-size: 18px;&quot;&gt;页头&lt;/font&gt;" style="text;html=1;strokeColor=none;fillColor=none;align=center;verticalAlign=middle;whiteSpace=wrap;rounded=0;" vertex="1" parent="1">
          <mxGeometry x="250" y="50" width="60" height="30" as="geometry" />
        </mxCell>
        <mxCell id="RKU6eVZUQNVuSh7gr3lQ-5" value="" style="rounded=0;whiteSpace=wrap;html=1;" vertex="1" parent="1">
          <mxGeometry x="90" y="200" width="390" height="170" as="geometry" />
        </mxCell>
        <mxCell id="RKU6eVZUQNVuSh7gr3lQ-6" value="" style="rounded=0;whiteSpace=wrap;html=1;" vertex="1" parent="1">
          <mxGeometry x="110" y="290" width="120" height="60" as="geometry" />
        </mxCell>
        <mxCell id="RKU6eVZUQNVuSh7gr3lQ-7" value="" style="rounded=0;whiteSpace=wrap;html=1;" vertex="1" parent="1">
          <mxGeometry x="330" y="290" width="120" height="60" as="geometry" />
        </mxCell>
        <mxCell id="RKU6eVZUQNVuSh7gr3lQ-8" value="" style="rounded=0;whiteSpace=wrap;html=1;" vertex="1" parent="1">
          <mxGeometry x="110" y="210" width="120" height="60" as="geometry" />
        </mxCell>
        <mxCell id="RKU6eVZUQNVuSh7gr3lQ-9" value="" style="rounded=1;whiteSpace=wrap;html=1;" vertex="1" parent="1">
          <mxGeometry x="330" y="210" width="120" height="60" as="geometry" />
        </mxCell>
        <mxCell id="RKU6eVZUQNVuSh7gr3lQ-10" value="" style="rounded=0;whiteSpace=wrap;html=1;" vertex="1" parent="1">
          <mxGeometry x="100" y="140" width="80" height="40" as="geometry" />
        </mxCell>
        <mxCell id="RKU6eVZUQNVuSh7gr3lQ-11" value="" style="rounded=0;whiteSpace=wrap;html=1;" vertex="1" parent="1">
          <mxGeometry x="110" y="410" width="80" height="40" as="geometry" />
        </mxCell>
        <mxCell id="RKU6eVZUQNVuSh7gr3lQ-12" value="" style="rounded=0;whiteSpace=wrap;html=1;" vertex="1" parent="1">
          <mxGeometry x="90" y="480" width="390" height="170" as="geometry" />
        </mxCell>
        <mxCell id="RKU6eVZUQNVuSh7gr3lQ-13" value="" style="rounded=0;whiteSpace=wrap;html=1;" vertex="1" parent="1">
          <mxGeometry x="330" y="580" width="120" height="60" as="geometry" />
        </mxCell>
        <mxCell id="RKU6eVZUQNVuSh7gr3lQ-14" value="" style="rounded=0;whiteSpace=wrap;html=1;" vertex="1" parent="1">
          <mxGeometry x="110" y="580" width="120" height="60" as="geometry" />
        </mxCell>
        <mxCell id="RKU6eVZUQNVuSh7gr3lQ-15" value="" style="rounded=0;whiteSpace=wrap;html=1;" vertex="1" parent="1">
          <mxGeometry x="330" y="500" width="120" height="60" as="geometry" />
        </mxCell>
        <mxCell id="RKU6eVZUQNVuSh7gr3lQ-16" value="" style="rounded=0;whiteSpace=wrap;html=1;" vertex="1" parent="1">
          <mxGeometry x="100" y="500" width="120" height="60" as="geometry" />
        </mxCell>
        <mxCell id="RKU6eVZUQNVuSh7gr3lQ-17" value="" style="rounded=0;whiteSpace=wrap;html=1;" vertex="1" parent="1">
          <mxGeometry x="80" y="730" width="410" height="670" as="geometry" />
        </mxCell>
        <mxCell id="RKU6eVZUQNVuSh7gr3lQ-18" value="诗歌散文" style="rounded=0;whiteSpace=wrap;html=1;" vertex="1" parent="1">
          <mxGeometry x="100" y="750" width="100" height="40" as="geometry" />
        </mxCell>
        <mxCell id="RKU6eVZUQNVuSh7gr3lQ-19" value="武侠玄幻" style="rounded=0;whiteSpace=wrap;html=1;" vertex="1" parent="1">
          <mxGeometry x="240" y="750" width="100" height="40" as="geometry" />
        </mxCell>
        <mxCell id="RKU6eVZUQNVuSh7gr3lQ-20" value="军事战争" style="rounded=0;whiteSpace=wrap;html=1;" vertex="1" parent="1">
          <mxGeometry x="380" y="750" width="90" height="40" as="geometry" />
        </mxCell>
        <mxCell id="RKU6eVZUQNVuSh7gr3lQ-21" value="" style="rounded=0;whiteSpace=wrap;html=1;" vertex="1" parent="1">
          <mxGeometry x="110" y="820" width="80" height="120" as="geometry" />
        </mxCell>
        <mxCell id="RKU6eVZUQNVuSh7gr3lQ-22" value="" style="rounded=0;whiteSpace=wrap;html=1;" vertex="1" parent="1">
          <mxGeometry x="240" y="980" width="80" height="120" as="geometry" />
        </mxCell>
        <mxCell id="RKU6eVZUQNVuSh7gr3lQ-23" value="" style="rounded=0;whiteSpace=wrap;html=1;" vertex="1" parent="1">
          <mxGeometry x="110" y="980" width="80" height="120" as="geometry" />
        </mxCell>
        <mxCell id="RKU6eVZUQNVuSh7gr3lQ-24" value="" style="rounded=0;whiteSpace=wrap;html=1;" vertex="1" parent="1">
          <mxGeometry x="374" y="830" width="80" height="120" as="geometry" />
        </mxCell>
        <mxCell id="RKU6eVZUQNVuSh7gr3lQ-25" value="" style="rounded=0;whiteSpace=wrap;html=1;" vertex="1" parent="1">
          <mxGeometry x="245" y="820" width="80" height="120" as="geometry" />
        </mxCell>
        <mxCell id="RKU6eVZUQNVuSh7gr3lQ-26" value="" style="rounded=0;whiteSpace=wrap;html=1;" vertex="1" parent="1">
          <mxGeometry x="370" y="1160" width="80" height="120" as="geometry" />
        </mxCell>
        <mxCell id="RKU6eVZUQNVuSh7gr3lQ-27" value="" style="rounded=0;whiteSpace=wrap;html=1;" vertex="1" parent="1">
          <mxGeometry x="240" y="1160" width="80" height="120" as="geometry" />
        </mxCell>
        <mxCell id="RKU6eVZUQNVuSh7gr3lQ-28" value="" style="rounded=0;whiteSpace=wrap;html=1;" vertex="1" parent="1">
          <mxGeometry x="110" y="1160" width="80" height="120" as="geometry" />
        </mxCell>
        <mxCell id="RKU6eVZUQNVuSh7gr3lQ-29" value="" style="rounded=0;whiteSpace=wrap;html=1;" vertex="1" parent="1">
          <mxGeometry x="370" y="990" width="80" height="120" as="geometry" />
        </mxCell>
        <mxCell id="RKU6eVZUQNVuSh7gr3lQ-31" value="" style="rounded=0;whiteSpace=wrap;html=1;" vertex="1" parent="1">
          <mxGeometry x="120" y="1430" width="380" height="640" as="geometry" />
        </mxCell>
        <mxCell id="RKU6eVZUQNVuSh7gr3lQ-32" value="&lt;font style=&quot;font-size: 24px;&quot;&gt;关注&lt;/font&gt;" style="rounded=0;whiteSpace=wrap;html=1;" vertex="1" parent="1">
          <mxGeometry x="140" y="1450" width="340" height="60" as="geometry" />
        </mxCell>
        <mxCell id="RKU6eVZUQNVuSh7gr3lQ-33" value="" style="rounded=0;whiteSpace=wrap;html=1;" vertex="1" parent="1">
          <mxGeometry x="150" y="1550" width="90" height="140" as="geometry" />
        </mxCell>
        <mxCell id="RKU6eVZUQNVuSh7gr3lQ-34" value="" style="rounded=0;whiteSpace=wrap;html=1;" vertex="1" parent="1">
          <mxGeometry x="150" y="1730" width="90" height="140" as="geometry" />
        </mxCell>
        <mxCell id="RKU6eVZUQNVuSh7gr3lQ-35" value="" style="rounded=0;whiteSpace=wrap;html=1;" vertex="1" parent="1">
          <mxGeometry x="380" y="1550" width="90" height="140" as="geometry" />
        </mxCell>
        <mxCell id="RKU6eVZUQNVuSh7gr3lQ-36" value="" style="rounded=0;whiteSpace=wrap;html=1;" vertex="1" parent="1">
          <mxGeometry x="265" y="1550" width="90" height="140" as="geometry" />
        </mxCell>
        <mxCell id="RKU6eVZUQNVuSh7gr3lQ-37" value="" style="rounded=0;whiteSpace=wrap;html=1;" vertex="1" parent="1">
          <mxGeometry x="150" y="1900" width="90" height="140" as="geometry" />
        </mxCell>
        <mxCell id="RKU6eVZUQNVuSh7gr3lQ-38" value="" style="rounded=0;whiteSpace=wrap;html=1;" vertex="1" parent="1">
          <mxGeometry x="380" y="1730" width="90" height="140" as="geometry" />
        </mxCell>
        <mxCell id="RKU6eVZUQNVuSh7gr3lQ-39" value="" style="rounded=0;whiteSpace=wrap;html=1;" vertex="1" parent="1">
          <mxGeometry x="270" y="1730" width="90" height="140" as="geometry" />
        </mxCell>
        <mxCell id="RKU6eVZUQNVuSh7gr3lQ-40" value="" style="rounded=0;whiteSpace=wrap;html=1;" vertex="1" parent="1">
          <mxGeometry x="380" y="1900" width="90" height="140" as="geometry" />
        </mxCell>
        <mxCell id="RKU6eVZUQNVuSh7gr3lQ-41" value="" style="rounded=0;whiteSpace=wrap;html=1;" vertex="1" parent="1">
          <mxGeometry x="270" y="1900" width="90" height="140" as="geometry" />
        </mxCell>
        <mxCell id="RKU6eVZUQNVuSh7gr3lQ-43" value="" style="rounded=0;whiteSpace=wrap;html=1;" vertex="1" parent="1">
          <mxGeometry x="115" y="2090" width="380" height="630" as="geometry" />
        </mxCell>
        <mxCell id="RKU6eVZUQNVuSh7gr3lQ-44" value="&lt;font style=&quot;font-size: 18px;&quot;&gt;user&lt;/font&gt;" style="ellipse;whiteSpace=wrap;html=1;aspect=fixed;" vertex="1" parent="1">
          <mxGeometry x="150" y="2100" width="70" height="70" as="geometry" />
        </mxCell>
        <mxCell id="RKU6eVZUQNVuSh7gr3lQ-45" value="书币" style="rounded=0;whiteSpace=wrap;html=1;" vertex="1" parent="1">
          <mxGeometry x="150" y="2200" width="70" height="40" as="geometry" />
        </mxCell>
        <mxCell id="RKU6eVZUQNVuSh7gr3lQ-46" value="积分" style="rounded=0;whiteSpace=wrap;html=1;" vertex="1" parent="1">
          <mxGeometry x="240" y="2200" width="70" height="40" as="geometry" />
        </mxCell>
        <mxCell id="RKU6eVZUQNVuSh7gr3lQ-47" value="" style="rounded=0;whiteSpace=wrap;html=1;" vertex="1" parent="1">
          <mxGeometry x="254" y="2110" width="216" height="50" as="geometry" />
        </mxCell>
        <mxCell id="RKU6eVZUQNVuSh7gr3lQ-48" value="签到" style="rounded=0;whiteSpace=wrap;html=1;" vertex="1" parent="1">
          <mxGeometry x="369" y="2170" width="90" height="30" as="geometry" />
        </mxCell>
        <mxCell id="RKU6eVZUQNVuSh7gr3lQ-49" value="充值" style="rounded=0;whiteSpace=wrap;html=1;" vertex="1" parent="1">
          <mxGeometry x="370" y="2210" width="90" height="30" as="geometry" />
        </mxCell>
        <mxCell id="RKU6eVZUQNVuSh7gr3lQ-50" value="" style="endArrow=none;html=1;rounded=0;exitX=1;exitY=0.25;exitDx=0;exitDy=0;entryX=0;entryY=0.25;entryDx=0;entryDy=0;" edge="1" parent="1" source="RKU6eVZUQNVuSh7gr3lQ-43" target="RKU6eVZUQNVuSh7gr3lQ-43">
          <mxGeometry width="50" height="50" relative="1" as="geometry">
            <mxPoint x="390" y="2530" as="sourcePoint" />
            <mxPoint x="440" y="2480" as="targetPoint" />
            <Array as="points">
              <mxPoint x="310" y="2248" />
            </Array>
          </mxGeometry>
        </mxCell>
        <mxCell id="RKU6eVZUQNVuSh7gr3lQ-51" value="阅读记录" style="rounded=0;whiteSpace=wrap;html=1;" vertex="1" parent="1">
          <mxGeometry x="130" y="2290" width="350" height="60" as="geometry" />
        </mxCell>
        <mxCell id="RKU6eVZUQNVuSh7gr3lQ-52" value="商品兑换" style="rounded=0;whiteSpace=wrap;html=1;" vertex="1" parent="1">
          <mxGeometry x="130" y="2510" width="350" height="60" as="geometry" />
        </mxCell>
        <mxCell id="RKU6eVZUQNVuSh7gr3lQ-53" value="历史评价" style="rounded=0;whiteSpace=wrap;html=1;" vertex="1" parent="1">
          <mxGeometry x="130" y="2430" width="350" height="60" as="geometry" />
        </mxCell>
        <mxCell id="RKU6eVZUQNVuSh7gr3lQ-54" value="消费记录" style="rounded=0;whiteSpace=wrap;html=1;" vertex="1" parent="1">
          <mxGeometry x="130" y="2360" width="350" height="60" as="geometry" />
        </mxCell>
        <mxCell id="RKU6eVZUQNVuSh7gr3lQ-55" value="兑换记录" style="rounded=0;whiteSpace=wrap;html=1;" vertex="1" parent="1">
          <mxGeometry x="130" y="2590" width="350" height="60" as="geometry" />
        </mxCell>
        <mxCell id="RKU6eVZUQNVuSh7gr3lQ-57" style="edgeStyle=orthogonalEdgeStyle;rounded=0;orthogonalLoop=1;jettySize=auto;html=1;exitX=0.5;exitY=1;exitDx=0;exitDy=0;" edge="1" parent="1" source="RKU6eVZUQNVuSh7gr3lQ-43" target="RKU6eVZUQNVuSh7gr3lQ-43">
          <mxGeometry relative="1" as="geometry" />
        </mxCell>
        <mxCell id="RKU6eVZUQNVuSh7gr3lQ-60" value="" style="rounded=0;whiteSpace=wrap;html=1;" vertex="1" parent="1">
          <mxGeometry x="120" y="2810" width="380" height="610" as="geometry" />
        </mxCell>
        <mxCell id="RKU6eVZUQNVuSh7gr3lQ-61" value="关注" style="rounded=1;whiteSpace=wrap;html=1;" vertex="1" parent="1">
          <mxGeometry x="130" y="2820" width="70" height="40" as="geometry" />
        </mxCell>
        <mxCell id="RKU6eVZUQNVuSh7gr3lQ-63" value="评论" style="rounded=1;whiteSpace=wrap;html=1;" vertex="1" parent="1">
          <mxGeometry x="425" y="2820" width="70" height="40" as="geometry" />
        </mxCell>
        <mxCell id="RKU6eVZUQNVuSh7gr3lQ-64" value="亮度调节" style="rounded=0;whiteSpace=wrap;html=1;" vertex="1" parent="1">
          <mxGeometry x="132.5" y="3320" width="75" height="60" as="geometry" />
        </mxCell>
        <mxCell id="RKU6eVZUQNVuSh7gr3lQ-65" value="字体调节" style="rounded=0;whiteSpace=wrap;html=1;" vertex="1" parent="1">
          <mxGeometry x="230" y="3320" width="75" height="60" as="geometry" />
        </mxCell>
        <mxCell id="RKU6eVZUQNVuSh7gr3lQ-66" value="背景调节" style="rounded=0;whiteSpace=wrap;html=1;" vertex="1" parent="1">
          <mxGeometry x="325" y="3320" width="75" height="60" as="geometry" />
        </mxCell>
        <mxCell id="RKU6eVZUQNVuSh7gr3lQ-67" value="语音朗读" style="rounded=0;whiteSpace=wrap;html=1;" vertex="1" parent="1">
          <mxGeometry x="414" y="3320" width="75" height="60" as="geometry" />
        </mxCell>
        <mxCell id="RKU6eVZUQNVuSh7gr3lQ-69" value="&lt;font style=&quot;font-size: 24px;&quot;&gt;阅读文本&lt;/font&gt;" style="rounded=0;whiteSpace=wrap;html=1;" vertex="1" parent="1">
          <mxGeometry x="130" y="2880" width="360" height="430" as="geometry" />
        </mxCell>
      </root>
    </mxGraphModel>
  </diagram>
</mxfile>
